<svg width="400" height="401.198" xmlns="http://www.w3.org/2000/svg" display="block"><g fill-rule="evenodd"><path d="M116.168 167.017c0 19.755.109 25.391.499 25.712.526.434 37.869 22.041 38.093 22.041.072 0 .13-7.724.13-17.165v-17.166H168.107l-.122 29.042-.122 29.042-.924 2.562c-5.29 14.66-27.24 16.708-35.112 3.276-4.427-7.554 5.343-13.829 10.925-7.016 5.706 6.964 15.488.387 10.538-7.086-12.375-18.682-41.914-3.635-33.962 17.299 8.685 22.864 47.175 24.154 58 1.943 3.047-6.252 2.862-3.499 3.008-44.81l.131-37.026h-38.34l-.105 12.574-.106 12.574-6.387-3.698-6.387-3.698-.105-15.463-.104-15.463h64.68v53.133c0 48.428.058 53.256.655 54.514 2.226 4.691 8.887 4.781 11.221.153l.898-1.782V154.491h64.68l-.104 15.452-.105 15.452-6.387 3.695-6.387 3.695-.106-12.56-.105-12.56h-38.336l.119 37.026c.109 33.839.179 37.232.816 39.421 3.882 13.333 17.428 22.523 31.848 21.606 23.997-1.526 37.91-23.689 24.015-38.257-8.331-8.733-23.194-7.303-29.691 2.857-4.694 7.34 4.968 13.959 10.439 7.151 5.691-7.082 15.699-.377 10.85 7.269-6.388 10.072-21.881 11.602-30.584 3.02-5.399-5.324-5.406-5.376-5.41-39.674l-.003-27.645h13.165l.104 17.169.104 17.169 18.962-10.951 18.963-10.951.102-25.579.103-25.579H116.168v25.3" fill="#fefefe"/><path d="M90.619 189.365v73.198l51.397 29.696 51.397 29.697 6.312.119 6.313.119 51.671-29.828 51.672-29.828v-146.37H90.619v73.197m193.116-22.056l-.102 25.592-19.162 11.062-19.162 11.063-.104-17.294-.104-17.293h-12.766v28.324c0 35.717.1 36.205 8.484 41.598 11.319 7.281 32.141-2.019 27.483-12.275-2.039-4.489-8.533-4.703-11.211-.37-4.483 7.254-15.079.231-10.829-7.177 5.96-10.387 21.305-12.138 30.017-3.425 12.969 12.968 2.913 33.713-18.478 38.12-16.787 3.459-33.195-5.807-37.546-21.202-.874-3.093-.88-3.366-1-39.94l-.121-36.827h38.75v12.575c0 6.916.135 12.566.3 12.556.164-.011 2.994-1.595 6.287-3.521l5.988-3.501.105-15.242.104-15.242h-64.281v53.134c0 48.196-.06 53.26-.648 54.498-2.083 4.39-8.738 4.525-11.408.232l-.918-1.477-.108-53.193-.108-53.194H129.332l.104 15.266.105 15.266 5.988 3.453 5.988 3.453.2-12.431.199-12.432 19.479-.104 19.478-.103-.139 36.83c-.126 33.362-.204 37.075-.829 39.425-5.797 21.793-34.041 29.654-52.839 14.706-12.94-10.29-11.907-28.289 2.002-34.895 8.967-4.258 21.272-.378 25.024 7.891 3.375 7.435-6.846 13.229-11.345 6.431-4.498-6.798-14.541-1.228-10.995 6.099 6.034 12.463 27.745 12.231 33.905-.363 1.958-4.003 2.008-4.869 2.008-34.854v-28.089h-12.766l-.104 17.315-.104 17.315-19.162-11.073-19.162-11.073-.102-25.603-.103-25.603h167.676l-.103 25.592" fill="#e31e24"/><path d="M90.486 116.035c-.37.369-.337 146.549.033 146.778.165.101.254-32.852.197-73.23l-.101-73.414 109.483-.101 109.483-.101-109.415-.099c-60.178-.055-109.534.02-109.68.167m38.456 53.802c0 8.44.135 15.429.3 15.531.164.102.25-6.714.19-15.146l-.109-15.332h63.888l.102 52.395.103 52.396.098-52.595.099-52.595H128.942v15.346m109.49-15.048l32.245.106-.109 15.347c-.06 8.441.028 15.21.195 15.043.168-.168.258-7.12.2-15.45l-.105-15.144-32.335-.004-32.335-.004 32.244.106m-96.534 12.98c-.107.276-.143 5.98-.082 12.674l.112 12.172.094-12.475.094-12.475h38.319l.104 35.229.104 35.23.098-35.429.097-35.43h-19.373c-15.216 0-19.416.108-19.567.504m86.717-.205c5.309.063 14.112.063 19.561.001 5.449-.063 1.105-.115-9.653-.115-10.759 0-15.217.052-9.908.114m-9.353 69.761c.005.879.087 1.191.182.694.096-.496.092-1.215-.008-1.597-.1-.381-.178.025-.174.903m-101.374 3.593c.002 1.318.077 1.808.166 1.091.089-.718.087-1.796-.004-2.395-.091-.6-.164-.013-.162 1.304m164.049 0c.004.878.086 1.191.182.694.095-.496.092-1.215-.008-1.597-.1-.381-.178.025-.174.903m-46.009 5.514c0 .069.584.653 1.298 1.298l1.297 1.172-1.173-1.297c-1.092-1.21-1.422-1.481-1.422-1.173m29.316 1.173l-1.172 1.297 1.297-1.172c.714-.645 1.298-1.229 1.298-1.298 0-.308-.33-.037-1.423 1.173m-116.836 5.771c.496.096 1.215.092 1.597-.008.381-.1-.025-.178-.903-.174-.878.005-1.191.087-.694.182m101.392 0a5.7 5.7 0 0 0 1.797 0c.494-.096.09-.173-.898-.173s-1.393.077-.899.173m-126.048 1.839c0 .068.584.652 1.298 1.297l1.297 1.173-1.172-1.298c-1.093-1.209-1.423-1.481-1.423-1.172" fill="#f17312"/><path d="M196.388.9c-2.838 1.912-2.96 2.473-3.099 14.17l-.124 10.479H154.89v-7.225c0-10.023-.943-11.737-6.458-11.737-3.185 0-4.46.745-5.817 3.401l-.898 1.758v52.925h116.588l-.111-26.847c-.122-29.814.018-28.299-2.799-30.307-1.865-1.331-5.931-1.331-7.796 0-2.43 1.733-2.674 2.663-2.82 10.746l-.132 7.286h-37.802l-.129-10.479c-.144-11.696-.267-12.259-3.104-14.17-1.864-1.257-5.36-1.257-7.224 0m48.323 44.21v6.387H154.89V38.723h89.821v6.387M77.445 83.633v6.587h245.11V77.046H77.445v6.587M.017 128.643l.018 25.648 19.273 11.078c10.6 6.093 19.395 11.078 19.543 11.078.739 0 .268-42.482-.489-44.15-1.96-4.315-8.468-4.815-11.285-.866-.902 1.265-.935 1.61-1.129 11.747l-.199 10.444-6.288-3.615-6.287-3.615v-30.224h38.303l.132 75.948c.142 82.41-.002 76.975 2.208 83.335 2.496 7.185 7.723 14.191 13.848 18.56 4.95 3.532 108.498 63.004 112.026 64.342 11.24 4.263 33.99 3.542 43.824-1.389 4.09-2.05 106.386-61.227 108.822-62.952 6.687-4.734 12.325-12.871 14.549-21 1.545-5.645 1.603-8.655 1.61-83.691l.007-73.153h37.934l-.105 15.249-.104 15.25-5.988 3.473-5.989 3.473-.199-10.24c-.17-8.691-.304-10.43-.889-11.498-2.153-3.935-8.486-4.187-11.155-.444l-.93 1.304-.11 21.856c-.06 12.021.03 21.852.2 21.847.17-.005 8.932-4.996 19.471-11.09l19.161-11.081.103-25.637.103-25.636H334.93v81.553c0 90.692.226 83.404-2.778 89.505-1.875 3.806-4.385 6.768-7.736 9.126-5.631 3.963-107.322 62.239-110.391 63.261-6.581 2.193-24.83 1.658-30.522-.895-3.634-1.63-107.383-61.723-109.252-63.279-2.543-2.12-5.253-5.591-6.729-8.617-2.6-5.333-2.44.506-2.446-89.117l-.006-81.537H0l.017 25.649m77.524 55.888l.104 81.537 1.109 2.26c1.287 2.619 3.139 4.417 6.718 6.519 12.731 7.479 101.964 58.81 103.346 59.449 2.749 1.272 19.628 1.27 22.36-.003 1.459-.681 73.871-42.345 99.376-57.179 7.893-4.591 8.814-5.361 10.496-8.776l1.305-2.652.105-81.346.104-81.346H77.438l.103 81.537m231.741 4.778l-.1 73.54-51.298 29.638-51.297 29.638-6.543.015-6.543.016-51.641-29.811-51.64-29.811v-73.116c0-40.215.119-73.237.266-73.383.146-.147 49.458-.267 109.582-.267h109.315l-.101 73.541m-25.661-22.044c0 14.162.05 19.956.111 12.875.061-7.081.061-18.668 0-25.749-.061-7.081-.111-1.287-.111 12.874m-64.268 34.531c0 18.883.048 26.549.108 17.036.06-9.512.06-24.961 0-34.331-.06-9.37-.109-1.587-.108 17.295m-51.499 6.188c0 15.26.049 21.502.11 13.872.061-7.629.061-20.114 0-27.744-.061-7.63-.11-1.387-.11 13.872m64.271.599c0 15.589.05 22.024.11 14.301.061-7.724.061-20.478 0-28.344-.06-7.865-.11-1.546-.11 14.043m-108.597 18.663l-1.173 1.297 1.298-1.173c1.209-1.093 1.481-1.422 1.172-1.422-.069 0-.652.584-1.297 1.298m103.618 28.842c.745.768 1.444 1.397 1.554 1.397.109 0-.41-.629-1.155-1.397-.745-.769-1.444-1.397-1.554-1.397-.11 0 .41.628 1.155 1.397m-123.958 82.597c-25.452 5.805-34.402 36.429-16.002 54.753 7.803 7.772 16.433 9.687 24.916 5.529 12.138-5.95 14.471-23.187 4.323-31.941-8.784-7.576-18.22 1.534-9.76 9.423 6.873 6.408-.152 14.884-7.911 9.545-13.385-9.208-9.026-30.582 6.961-34.139 7.252-1.613 7.551-1.49 35.37 14.594C174.624 385.84 177.457 386.82 200 386.82c22.677 0 25.063-.828 59.082-20.487 29.235-16.894 30.43-17.29 39.321-13.019 13.431 6.452 14.368 26.895 1.533 33.443-7.708 3.932-13.4-5.754-6.258-10.648 6.758-4.63.473-14.84-6.991-11.357-10.532 4.916-12.745 21.753-4.008 30.5 8.515 8.524 21.367 7.552 30.762-2.326 19.742-20.76 5.161-54.802-23.473-54.802-8.458 0-9.732.561-36.874 16.24-33.525 19.366-31.22 18.521-51.256 18.788-22.563.301-20.953.854-55.331-19.005-26.625-15.381-27.262-15.664-35.729-15.878-3.416-.087-6.009.056-7.59.416" fill="#fecc00"/></g></svg>